<svg aria-hidden="true" style="position: absolute; width: 0; height: 0; overflow: hidden;" version="1.1" xmlns="http://www.w3.org/2000/svg" xmlns:xlink="http://www.w3.org/1999/xlink">
<defs>
<symbol id="icon-facebook" viewBox="0 0 16 32">
<path fill="#84a178" d="M14.143 15.971h-4.033v14.865h-6.112v-14.865h-2.906v-5.222h2.906v-3.382c0-2.417 1.142-6.204 6.167-6.204l4.527 0.019v5.072h-3.284c-0.538 0-1.297 0.272-1.297 1.425v3.073h4.567l-0.534 5.219z"></path>
</symbol>
<symbol id="icon-telegram" viewBox="0 0 44 32">
<path fill="#84a178" d="M17.346 21.048l-0.676 8.86c0.966 0 1.384-0.388 1.886-0.852l4.528-4.040 9.38 6.414c1.72 0.894 2.932 0.422 3.396-1.478l6.16-26.932c0.546-2.372-0.92-3.3-2.596-2.72l-36.194 12.934c-2.47 0.896-2.432 2.18-0.42 2.766l9.254 2.686 21.494-12.552c1.010-0.626 1.93-0.28 1.174 0.346l-17.386 14.57z"></path>
</symbol>
<symbol id="icon-github" viewBox="0 0 32 32">
<path fill="#84a178" d="M16 0c-8.789 0-16 7.211-16 16 0 7.499 5.262 14.312 12.25 16v-5.293c-0.276 0.070-0.593 0.109-0.919 0.109-0.398 0-0.781-0.059-1.143-0.169l0.028 0.007c-0.946-0.278-1.714-0.909-2.285-1.869-0.363-0.613-1.008-1.28-1.68-1.23l-0.165-1.867c1.454-0.125 2.71 0.886 3.456 2.139 0.333 0.558 0.715 0.885 1.205 1.029 0.472 0.141 0.981 0.074 1.573-0.136 0.149-1.186 0.693-1.629 1.104-2.256-4.168-0.621-5.829-2.832-6.488-4.576-0.874-2.318-0.405-5.213 1.139-7.043 0.030-0.035 0.085-0.128 0.064-0.192-0.709-2.141 0.154-3.91 0.186-4.098 0.818 0.24 0.95-0.243 3.552 1.336l0.448 0.27c0.189 0.112 0.128 0.048 0.317 0.032 1.003-0.282 2.157-0.452 3.349-0.469l0.010-0c1.136 0.014 2.272 0.176 3.403 0.483l0.146 0.016c-0.013-0.003 0.040-0.010 0.128-0.062 3.248-1.968 3.131-1.325 4.003-1.608 0.032 0.189 0.882 1.987 0.182 4.099-0.096 0.291 2.816 2.957 1.202 7.235-0.659 1.744-2.32 3.957-6.486 4.578 0.534 0.816 1.176 1.248 1.173 2.928v6.606c6.986-1.688 12.25-8.501 12.25-16 0-8.789-7.211-16-16-16z"></path>
</symbol>
<symbol id="icon-ice-cream" viewBox="0 0 32 32">
<path d="M16.108 0.107c0.080 0.215 0.241 1.252 0.241 1.573 0 0.003 0 0.007 0 0.011 0 0.818-0.318 1.561-0.838 2.114l0.001-0.002c-0.449 0.482-0.898 0.749-1.975 1.185-1.198 0.489-1.694 0.783-2.256 1.339-0.569 0.569-0.904 1.191-1.024 1.922-0.134 0.796 0 1.358 0.408 1.68l0.207 0.16-0.328 0.208c-0.662 0.436-1.867 1.46-2.075 1.774-0.402 0.603-0.362 1.164 0.093 1.393l0.214 0.107-0.241 0.228c-0.362 0.341-0.436 0.576-0.382 1.191 0.034 0.409 0.020 0.63-0.073 0.964-0.114 0.436-0.114 0.442 0.033 0.75 0.148 0.301 0.563 0.683 0.938 0.844 0.18 0.080 0.187 0.107 0.228 0.723 0.020 0.356 0.053 1.486 0.080 2.517 0.020 1.031 0.068 1.975 0.107 2.089 0.034 0.12 0.161 0.281 0.276 0.361 0.388 0.268 0.656 0.556 0.829 0.891 0.195 0.382 0.409 1.319 1.058 4.559l0.455 2.276 0.282 0.268c0.535 0.529 1.56 0.77 3.247 0.77 1.693 0 2.704-0.235 3.24-0.764l0.288-0.274 0.414-2.109c0.916-4.612 0.997-4.867 1.714-5.436 0.22-0.181 0.436-0.402 0.475-0.502 0.047-0.114 0.094-0.991 0.127-2.316 0.027-1.178 0.068-2.343 0.094-2.591l0.040-0.448 0.436-0.329c0.548-0.421 0.763-0.803 0.763-1.392-0.006-0.696-0.462-1.46-1.292-2.142l-0.396-0.321 0.195-0.276c0.81-1.117 0.301-2.664-1.205-3.694l-0.455-0.315 0.167-0.174c0.743-0.796 0.864-3.173 0.241-4.827-0.374-0.984-1.232-2.055-2.283-2.845-0.514-0.388-1.934-1.245-2.060-1.245-0.027 0-0.027 0.047-0.006 0.107zM18.036 2.444c0.356 0.348 0.783 0.823 0.951 1.064 0.997 1.393 1.252 3.14 0.649 4.426-0.241 0.522-0.964 1.298-1.634 1.76-1.024 0.71-3.327 1.902-4.933 2.557-2.584 1.052-4.084 1.252-4.258 0.563-0.068-0.261 0.127-0.468 0.951-1.018 0.742-0.508 4.076-2.986 4.136-3.086 0.020-0.027-0.321 0.127-0.749 0.341-1.452 0.737-2.142 0.596-2.108-0.428 0.020-0.743 0.556-1.587 1.298-2.068 0.188-0.12 0.771-0.388 1.307-0.603 1.76-0.709 2.296-1.071 2.892-1.961 0.356-0.529 0.743-1.507 0.77-1.922 0.007-0.147 0.034-0.261 0.053-0.261s0.322 0.288 0.676 0.636zM19.863 10.050c0.489 0.274 0.997 0.743 1.218 1.111 0.389 0.662 0.188 1.325-0.649 2.169-0.91 0.924-2.463 1.808-4.171 2.37-1.573 0.516-3.079 0.756-5.236 0.83l-1.339 0.047 0.871 0.053c1.124 0.074 3.3 0.007 4.143-0.127 2.243-0.356 4.151-1.065 5.516-2.042 0.308-0.221 0.629-0.402 0.716-0.402 0.221 0 1.185 0.924 1.38 1.312 0.107 0.221 0.133 0.382 0.114 0.596-0.1 0.891-1.186 1.366-3.803 1.68-3.2 0.382-7.384 0.007-9.172-0.816-0.844-0.388-0.984-0.61-0.77-1.198 0.067-0.188 0.080-0.409 0.053-0.724-0.034-0.415-0.027-0.468 0.12-0.622 0.335-0.362 0.898-0.569 2.96-1.092 0.723-0.187 1.707-0.482 2.175-0.656 1.138-0.415 3.274-1.493 4.264-2.156 0.931-0.616 1.065-0.643 1.607-0.334zM10.972 18.244c1.406 0.409 2.652 0.529 4.968 0.482 1.74-0.033 2.812-0.14 4.357-0.415 0.316-0.053 0.589-0.1 0.623-0.1 0.074 0 0.053 2.571-0.027 3.247-0.087 0.716-0.282 1.272-0.489 1.406-0.214 0.14-1.285 0.288-2.718 0.368-2.939 0.16-5.958 0-6.895-0.375-0.508-0.207-0.563-0.476-0.569-2.959 0-1.653 0.013-1.881 0.1-1.847 0.053 0.020 0.348 0.107 0.649 0.194zM12.559 23.934c0.482 0.060 1.004 0.12 1.164 0.14l0.289 0.034-0.255 0.281c-0.328 0.355-0.83 1.064-1.011 1.426-0.207 0.415-0.275 0.442-0.582 0.275l-0.261-0.148-0.147-0.91c-0.078-0.506-0.143-0.863-0.216-1.217l0.028 0.165c-0.060-0.173-0.121-0.173 0.99-0.046zM19.696 23.86c0 0.013-0.034 0.187-0.068 0.382-0.040 0.2-0.207 1.292-0.374 2.429-0.341 2.377-0.569 3.494-0.777 3.869-0.288 0.502-0.978 0.796-2.095 0.891-0.436 0.034-1.748-0.053-1.821-0.121-0.053-0.060 1.098-1.486 1.279-1.58 0.167-0.094 0.213-0.080 0.782 0.213 0.663 0.349 0.998 0.403 0.998 0.181s-0.174-0.436-0.603-0.729c-0.395-0.282-0.535-0.443-0.535-0.63 0-0.053 0.194-0.355 0.428-0.669s0.575-0.817 0.749-1.118l0.329-0.542 0.3 0.041c0.609 0.087 0.77 0.080 0.75-0.053-0.013-0.068-0.127-0.261-0.255-0.422-0.127-0.167-0.228-0.335-0.228-0.368 0-0.127 0.622-1.299 0.824-1.547 0.174-0.214 0.315-0.322 0.315-0.228zM15.512 24.396c0.334 0.221 1.593 1.313 1.673 1.446 0.034 0.060-1.258 2.082-1.513 2.37-0.027 0.034-0.167-0.033-0.308-0.14-0.312-0.235-0.692-0.499-1.080-0.752l-0.085-0.052-0.904-0.596 0.542-0.917c0.964-1.613 0.944-1.587 1.151-1.587 0.107 0 0.341 0.1 0.523 0.228zM18.049 24.636c-0.235 0.288-0.428 0.469-0.508 0.469-0.174 0-0.456-0.154-0.931-0.502l-0.396-0.288 0.791-0.047c0.348-0.013 0.665-0.034 0.98-0.065l-0.064 0.005c0.536-0.087 0.536-0.080 0.128 0.428zM12.988 27.857c0.616 0.241 1.66 0.81 1.962 1.065 0.214 0.173 0.214 0.187 0.127 0.401-0.141 0.281-0.279 0.516-0.43 0.741l0.015-0.024c-0.128 0.191-0.277 0.434-0.417 0.682l-0.032 0.061c-0.213 0.415-0.281 0.449-0.723 0.329-0.476-0.141-0.729-0.382-0.863-0.818-0.181-0.609-0.469-2.329-0.436-2.597 0.013-0.1 0.294-0.040 0.796 0.161z"></path>
</symbol>
<symbol id="icon-weight" viewBox="0 0 32 32">
<path d="M14.178 0.547c-3.974 0.589-7.247 2.796-8.452 5.685-0.384 0.913-0.487 1.474-0.487 2.573 0.007 0.812 0.036 1.114 0.163 1.552 0.258 0.862 0.443 1.301 0.827 1.92l0.356 0.574-0.4 0.489c-3.154 3.924-3.501 9.444-0.871 13.793 0.982 1.631 2.586 3.235 4.151 4.169l0.466 0.273 12.743-0.108 0.302-0.165c1.057-0.596 2.548-1.926 3.383-3.004 1.208-1.569 2.064-3.472 2.413-5.546l0.010-0.074c0.118-0.74 0.118-2.933-0.007-3.63-0.377-2.148-1.182-3.988-2.452-5.62-0.244-0.309-0.436-0.568-0.436-0.589 0-0.014 0.133-0.237 0.288-0.489 0.362-0.575 0.687-1.316 0.864-1.962 0.199-0.719 0.199-2.516 0-3.235-0.709-2.551-2.836-4.679-5.843-5.851-0.843-0.331-2.284-0.683-3.214-0.797-0.864-0.101-2.999-0.080-3.804 0.043zM18.676 1.718c3.945 0.769 6.834 3.184 7.365 6.16 0.118 0.668 0.044 1.804-0.155 2.436-0.2 0.619-0.569 1.345-1.004 1.963-0.178 0.252-0.325 0.54-0.325 0.633s0.155 0.338 0.377 0.582c1.846 2.048 2.821 4.614 2.821 7.388-0.007 3.156-1.219 5.923-3.553 8.093-0.399 0.373-0.968 0.841-1.271 1.042l-0.554 0.373-12.211 0.051-0.473-0.302c-1.714-1.114-3.258-2.954-4.115-4.908-1.078-2.472-1.189-5.34-0.31-7.913 0.466-1.337 1.086-2.429 2.031-3.58 0.385-0.46 0.562-0.733 0.562-0.862 0-0.108-0.192-0.46-0.444-0.827-0.886-1.287-1.248-2.717-1.034-4.068 0.222-1.365 0.842-2.487 1.987-3.601 1.493-1.444 3.576-2.4 6.021-2.76 1.012-0.151 3.25-0.093 4.284 0.1z"></path>
<path d="M14.509 2.983c-3.028 0.496-5.4 2.178-6.175 4.385-0.178 0.496-0.207 0.69-0.207 1.401s0.029 0.907 0.207 1.402c0.11 0.316 0.317 0.756 0.458 0.978 0.384 0.618 0.554 0.64 1.316 0.18 1.094-0.674 2.368-1.19 3.727-1.474l0.078-0.014c0.916-0.187 2.674-0.258 3.671-0.143 1.558 0.18 3.25 0.74 4.602 1.538 0.384 0.222 0.776 0.409 0.871 0.409 0.562 0 1.278-1.617 1.278-2.875 0-2.796-2.674-5.189-6.463-5.786-0.805-0.129-2.587-0.129-3.362 0zM18.166 4.133c1.271 0.273 2.437 0.791 3.317 1.474 1.182 0.913 1.817 2.185 1.713 3.413-0.036 0.489-0.221 1.15-0.332 1.222-0.030 0.014-0.444-0.158-0.916-0.388-0.926-0.454-2.004-0.832-3.131-1.081l-0.097-0.018c-0.687-0.143-0.975-0.165-2.511-0.158-1.515 0-1.832 0.022-2.489 0.158-1.179 0.249-2.221 0.616-3.196 1.099l0.078-0.035c-1.1 0.524-1.042 0.532-1.241-0.116-0.258-0.84-0.096-1.955 0.406-2.796 0.267-0.445 0.997-1.186 1.529-1.552 1.012-0.698 1.899-1.013 3.804-1.359 0.391-0.071 2.564 0.029 3.066 0.137zM16.963 13.404c-0.207 0.26-0.207 0.504 0.007 0.712 0.14 0.137 0.281 0.172 0.791 0.209 1.034 0.075 1.983 0.38 2.815 0.865l-0.031-0.017c0.606 0.359 1.529 1.229 1.943 1.854 0.613 0.898 1.034 2.185 1.034 3.134 0 0.331 0.030 0.431 0.185 0.574 0.236 0.237 0.547 0.237 0.776 0 0.163-0.165 0.169-0.208 0.125-0.912-0.207-3.479-3.184-6.382-6.744-6.578l-0.74-0.043-0.162 0.202z"></path>
</symbol>
<symbol id="icon-cow" viewBox="0 0 31 32">
<path d="M6.002 0.778c-0.254 0.219-0.98 1.732-1.24 2.558-0.31 1.024-0.415 1.792-0.374 2.851 0.056 1.514 0.437 2.662 1.275 3.861 0.219 0.315 0.395 0.585 0.395 0.607 0 0.015-0.134 0.029-0.303 0.029-0.726 0-2.086 0.241-3.128 0.555-1.655 0.497-2.627 1.367-2.627 2.34 0 0.343 0.31 0.928 0.641 1.228 0.641 0.578 2.043 1.126 3.55 1.389 0.521 0.095 2.071 0.256 2.416 0.264 0.063 0 0.085 0.336 0.085 1.44 0 0.951 0.035 1.689 0.106 2.142 0.253 1.623 1.042 3.342 2.084 4.555l0.36 0.417-0.24 0.387c-0.352 0.548-0.486 0.965-0.528 1.586-0.106 1.492 0.823 2.815 2.621 3.744 3.422 1.776 8.741 1.082 10.735-1.404 0.972-1.214 1.085-2.603 0.317-3.861l-0.24-0.388 0.43-0.519c0.803-0.965 1.324-1.93 1.718-3.152 0.331-1.038 0.458-2.040 0.458-3.626 0-0.724 0.021-1.323 0.056-1.323 0.324-0.008 1.881-0.176 2.374-0.264 1.514-0.263 2.889-0.804 3.55-1.389 0.331-0.3 0.641-0.885 0.641-1.228 0-1.083-1.098-1.96-3.142-2.486-0.669-0.176-1.93-0.387-2.543-0.424l-0.289-0.023 0.317-0.438c0.394-0.534 0.887-1.571 1.078-2.252 0.535-1.967 0.204-4.255-0.944-6.441-0.48-0.905-0.811-1.117-1.198-0.759-0.148 0.138-0.212 0.329-0.352 1.016-0.437 2.186-1.247 3.92-2.43 5.199l-0.521 0.571h-11.144l-0.465-0.505c-1.155-1.271-1.994-3.070-2.43-5.264-0.141-0.688-0.204-0.877-0.352-1.016-0.233-0.212-0.458-0.205-0.718 0.022zM6.903 5.114c0.374 0.819 0.839 1.586 1.387 2.295l0.437 0.563-0.457 0.344c-0.43 0.329-0.831 0.797-1.142 1.33l-0.133 0.242-0.338-0.461c-1.155-1.594-1.444-3.546-0.831-5.571 0.296-0.98 0.289-0.973 0.556-0.125 0.127 0.409 0.367 1.031 0.521 1.382zM25.238 3.571c0.255 0.709 0.403 1.526 0.403 2.378 0 0.030-0 0.060-0.001 0.090l0-0.005c0 1.331-0.352 2.456-1.091 3.465l-0.331 0.453-0.247-0.417c-0.319-0.54-0.732-0.991-1.22-1.344l-0.013-0.009c-0.19-0.124-0.337-0.248-0.337-0.263 0-0.022 0.133-0.19 0.303-0.373 0.782-0.87 1.62-2.435 2.036-3.779 0.126-0.418 0.253-0.761 0.274-0.761s0.127 0.256 0.225 0.562zM21.64 8.916c0.782 0.329 1.528 1.271 1.648 2.069 0.063 0.439 0.211 0.717 0.401 0.761 0.085 0.015 0.669 0.066 1.296 0.109 2.225 0.147 3.979 0.622 4.727 1.272 0.345 0.307 0.31 0.563-0.105 0.878-0.831 0.629-2.627 1.104-4.459 1.185-1.212 0.051-1.465 0.086-1.628 0.255-0.119 0.125-0.133 0.256-0.133 1.579 0 1.792-0.092 2.823-0.317 3.656-0.317 1.133-0.944 2.34-1.676 3.196l-0.303 0.351-0.627-0.373c-0.669-0.415-1.445-0.74-2.272-0.933l-0.053-0.010c-2.67-0.636-5.622-0.248-7.607 1.002l-0.458 0.292-0.289-0.343c-0.394-0.461-1.014-1.448-1.261-2.003-0.542-1.258-0.704-2.282-0.704-4.534 0-2.186 0.112-2.026-1.507-2.113-2.071-0.11-3.65-0.483-4.643-1.111-0.733-0.468-0.612-0.885 0.409-1.375 0.979-0.476 2.324-0.76 4.191-0.877 1.451-0.095 1.486-0.117 1.62-0.819 0.197-1.060 0.979-1.937 1.966-2.216 0.246-0.073 1.627-0.087 5.853-0.080l5.53 0.014 0.401 0.169zM17.68 24.051c1.726 0.424 3.015 1.213 3.572 2.193 0.134 0.227 0.19 0.461 0.218 0.819 0.029 0.446 0.008 0.555-0.162 0.921-0.782 1.661-3.656 2.756-6.579 2.508-3.515-0.292-5.826-2.252-4.917-4.175 0.493-1.038 2.162-2.032 3.923-2.326 0.289-0.043 0.578-0.095 0.634-0.11s0.691-0.015 1.41 0c0.978 0.023 1.45 0.066 1.901 0.169z"></path>
<path d="M10.693 12.579c-0.437 0.147-0.733 0.337-1.127 0.732-0.346 0.329-0.374 0.716-0.085 0.95 0.268 0.219 0.521 0.19 0.845-0.095 0.409-0.358 0.726-0.504 1.121-0.504 0.394-0.008 0.697 0.131 1.119 0.504 0.324 0.285 0.578 0.314 0.846 0.095 0.141-0.117 0.183-0.212 0.183-0.432 0-0.227-0.049-0.329-0.297-0.578-0.697-0.701-1.732-0.972-2.606-0.673zM18.906 12.572c-0.45 0.168-1.028 0.548-1.26 0.833-0.226 0.278-0.233 0.592 0 0.827 0.232 0.248 0.514 0.233 0.852-0.044 0.831-0.688 1.451-0.709 2.219-0.073 0.197 0.169 0.422 0.3 0.493 0.3 0.345 0 0.627-0.307 0.627-0.673 0-0.233-0.585-0.775-1.113-1.031-0.585-0.285-1.282-0.336-1.817-0.138zM11.715 26.106c-0.204 0.197-0.275 0.483-0.169 0.709 0.078 0.183 0.197 0.256 0.683 0.387 0.219 0.058 0.31 0.131 0.387 0.314 0.099 0.242 0.106 0.242 0.649 0.264l0.542 0.022v-0.205c-0.007-0.292-0.169-0.716-0.381-1.008-0.246-0.337-0.676-0.556-1.162-0.6-0.331-0.029-0.415-0.015-0.549 0.118zM18.442 26.054c-0.352 0.095-0.859 0.571-1 0.943-0.070 0.196-0.118 0.423-0.134 0.658l-0 0.008c-0.014 0.314 0.014 0.387 0.183 0.541 0.415 0.365 0.965 0.080 0.965-0.505 0-0.285 0.211-0.483 0.585-0.555 0.394-0.073 0.535-0.233 0.542-0.607 0-0.489-0.437-0.68-1.142-0.483z"></path>
</symbol>
<symbol id="icon-menu" viewBox="0 0 32 32">
<path d="M26.7333 14H5.26667C4.56711 14 4 14.4253 4 14.95V15.05C4 15.5747 4.56711 16 5.26667 16H26.7333C27.4329 16 28 15.5747 28 15.05V14.95C28 14.4253 27.4329 14 26.7333 14Z"/>
<path d="M26.7333 20H5.26667C4.56711 20 4 20.4253 4 20.95V21.05C4 21.5747 4.56711 22 5.26667 22H26.7333C27.4329 22 28 21.5747 28 21.05V20.95C28 20.4253 27.4329 20 26.7333 20Z"/>
<path d="M26.7333 8H5.26667C4.56711 8 4 8.42533 4 8.95V9.05C4 9.57467 4.56711 10 5.26667 10H26.7333C27.4329 10 28 9.57467 28 9.05V8.95C28 8.42533 27.4329 8 26.7333 8Z"/>
</symbol>
<symbol id="icon-close" viewBox="0 0 32 32">
<path d="M23.884 6.70597L16 14.59L8.11602 6.70597C7.9264 6.53245 7.67714 6.43878 7.42017 6.44448C7.1632 6.45017 6.91833 6.55479 6.73658 6.73654C6.55484 6.91829 6.45022 7.16315 6.44452 7.42012C6.43883 7.67709 6.5325 7.92635 6.70602 8.11597L14.586 16L6.70402 23.882C6.60773 23.9737 6.53075 24.0838 6.47761 24.2058C6.42448 24.3277 6.39626 24.4591 6.39461 24.5921C6.39296 24.7251 6.41792 24.8571 6.46802 24.9803C6.51812 25.1035 6.59235 25.2155 6.68634 25.3096C6.78033 25.4038 6.89219 25.4781 7.01535 25.5284C7.1385 25.5787 7.27046 25.6038 7.40348 25.6024C7.53649 25.6009 7.66787 25.5729 7.78989 25.5199C7.91191 25.467 8.02211 25.3901 8.11402 25.294L16 17.412L23.884 25.296C24.0736 25.4695 24.3229 25.5632 24.5799 25.5575C24.8368 25.5518 25.0817 25.4472 25.2635 25.2654C25.4452 25.0837 25.5498 24.8388 25.5555 24.5818C25.5612 24.3249 25.4675 24.0756 25.294 23.886L17.41 16.002L25.294 8.11597C25.3903 8.0242 25.4673 7.91411 25.5204 7.79216C25.5736 7.67022 25.6018 7.53888 25.6034 7.40587C25.6051 7.27286 25.5801 7.14086 25.53 7.01763C25.4799 6.89441 25.4057 6.78244 25.3117 6.68832C25.2177 6.59419 25.1058 6.5198 24.9827 6.46953C24.8595 6.41926 24.7276 6.39411 24.5946 6.39557C24.4616 6.39703 24.3302 6.42506 24.2082 6.47802C24.0861 6.53099 23.9759 6.60781 23.884 6.70397V6.70597Z"/>
</symbol>
<symbol id="arrow" viewBox="0 0 41 16" fill="#131313">
<path d="M40.7071 8.70711C41.0976 8.31658 41.0976 7.68342 40.7071 7.29289L34.3431 0.928932C33.9526 0.538408 33.3195 0.538408 32.9289 0.928932C32.5384 1.31946 32.5384 1.95262 32.9289 2.34315L38.5858 8L32.9289 13.6569C32.5384 14.0474 32.5384 14.6805 32.9289 15.0711C33.3195 15.4616 33.9526 15.4616 34.3431 15.0711L40.7071 8.70711ZM0 9H40V7H0V9Z" fill="#131313"/>
</symbol>
<symbol id="cow" viewBox="0 0 36 37" fill="131313">
<path d="M6.93937 0.899403C6.64615 1.15302 5.80724 2.90303 5.50588 3.85834C5.14751 5.04191 5.02534 5.9296 5.07421 7.15544C5.13937 8.90544 5.57919 10.2327 6.54842 11.6192C6.80091 11.9827 7.00453 12.2955 7.00453 12.3209C7.00453 12.3378 6.84977 12.3547 6.6543 12.3547C5.81538 12.3547 4.24344 12.6337 3.03801 12.9972C1.12398 13.5721 0 14.5781 0 15.7025C0 16.0999 0.358371 16.7762 0.741176 17.1228C1.48235 17.7907 3.10317 18.4248 4.84615 18.7291C5.44887 18.839 7.24072 19.025 7.63982 19.0335C7.71312 19.0335 7.73756 19.4223 7.73756 20.6989C7.73756 21.7979 7.77828 22.6518 7.85973 23.176C8.15294 25.0528 9.06516 27.0395 10.2706 28.4429L10.686 28.9248L10.409 29.3728C10.0018 30.0069 9.84706 30.4888 9.79819 31.2074C9.67602 32.932 10.7511 34.4622 12.8281 35.5359C16.7864 37.5902 22.9357 36.7871 25.2407 33.9127C26.3647 32.5093 26.495 30.903 25.6072 29.4489L25.3303 29.0008L25.8272 28.4006C26.7557 27.2847 27.3584 26.1687 27.8145 24.7569C28.1973 23.5564 28.3439 22.3982 28.3439 20.5636C28.3439 19.7267 28.3683 19.0335 28.4091 19.0335C28.7837 19.025 30.5837 18.8306 31.1538 18.7291C32.905 18.4248 34.4932 17.7992 35.2588 17.1228C35.6416 16.7762 36 16.0999 36 15.7025C36 14.4513 34.7294 13.4368 32.3674 12.8281C31.5937 12.6252 30.1357 12.3801 29.4272 12.3378L29.0932 12.3124L29.4597 11.8052C29.9158 11.188 30.486 9.98757 30.7059 9.20133C31.3249 6.92718 30.9421 4.28104 29.6145 1.75327C29.0606 0.704956 28.6778 0.459789 28.2299 0.874039C28.0588 1.03467 27.9855 1.25447 27.8226 2.04916C27.3176 4.57693 26.381 6.58056 25.0127 8.06003L24.41 8.71945H17.9674H11.5249L10.9873 8.13612C9.65158 6.6651 8.68235 4.58539 8.17738 2.04916C8.01448 1.25447 7.94118 1.03467 7.77014 0.874039C7.50136 0.628872 7.24072 0.637325 6.93937 0.899403ZM7.9819 5.91269C8.41358 6.85955 8.95113 7.74723 9.58643 8.56728L10.0914 9.21824L9.56199 9.61559C9.06516 9.99602 8.60091 10.5371 8.24253 11.1542L8.08778 11.4332L7.69683 10.9006C6.36109 9.05761 6.02715 6.80037 6.73575 4.45858C7.07783 3.32573 7.06968 3.33419 7.37919 4.31486C7.52579 4.78829 7.80272 5.50689 7.9819 5.91269ZM29.1828 4.12887C29.5167 5.13491 29.6471 5.93805 29.6471 6.9779C29.6471 8.51655 29.2398 9.81848 28.3846 10.9851L28.0018 11.5093L27.7167 11.0274C27.3828 10.4356 26.8127 9.81848 26.2914 9.46341C26.0715 9.31969 25.9005 9.17597 25.9005 9.15906C25.9005 9.1337 26.0552 8.93926 26.2507 8.7279C27.1548 7.72186 28.124 5.91269 28.6045 4.35713C28.7511 3.87525 28.8977 3.47791 28.9222 3.47791C28.9466 3.47791 29.0688 3.7738 29.1828 4.12887ZM25.0208 10.3088C25.9249 10.6893 26.7882 11.7798 26.9267 12.7013C27 13.2086 27.171 13.5298 27.391 13.5806C27.4887 13.5975 28.1647 13.6566 28.8896 13.7074C31.4634 13.8765 33.4914 14.426 34.3548 15.1784C34.7538 15.5335 34.7131 15.8294 34.2326 16.1929C33.2715 16.9199 31.1946 17.4694 29.0769 17.5624C27.676 17.6216 27.3828 17.6639 27.1955 17.8583C27.057 18.0021 27.0407 18.1542 27.0407 19.6844C27.0407 21.7557 26.9348 22.9477 26.6742 23.9115C26.3077 25.2219 25.5828 26.6168 24.7357 27.6059L24.3855 28.0117L23.6606 27.5806C22.781 27.0564 21.9584 26.7182 20.9729 26.49C17.886 25.7545 14.4733 26.2025 12.1765 27.6482L11.6471 27.9864L11.3131 27.589C10.857 27.0564 10.1403 25.9151 9.8552 25.2726C9.22806 23.8185 9.04072 22.6349 9.04072 20.031C9.04072 17.5033 9.17104 17.6893 7.29774 17.5878C4.90317 17.461 3.07873 17.0298 1.93032 16.3028C1.08326 15.7617 1.22172 15.2798 2.40271 14.7134C3.53484 14.1639 5.0905 13.8342 7.24887 13.6989C8.9267 13.589 8.96742 13.5637 9.12217 12.7521C9.35023 11.5262 10.2543 10.5117 11.3946 10.1905C11.6796 10.1059 13.276 10.089 18.1629 10.0975L24.5566 10.1144L25.0208 10.3088ZM20.4434 27.8088C22.4389 28.2992 23.9294 29.2122 24.5729 30.345C24.7276 30.6071 24.7928 30.8777 24.8253 31.2919C24.8579 31.8076 24.8335 31.9344 24.638 32.3571C23.7339 34.2762 20.4109 35.5443 17.0308 35.2569C12.9665 34.9187 10.295 32.653 11.3457 30.4296C11.9158 29.2291 13.8462 28.0793 15.8824 27.7412C16.2163 27.6905 16.5502 27.6313 16.6154 27.6144C16.6805 27.5975 17.4136 27.5975 18.2443 27.6144C19.3765 27.6397 19.9222 27.6905 20.4434 27.8088Z"/>
<path d="M12.364 14.5444C11.859 14.7135 11.5169 14.9333 11.0608 15.3899C10.6617 15.7703 10.6291 16.2184 10.9631 16.4889C11.2726 16.7425 11.5658 16.7087 11.9404 16.379C12.4128 15.9647 12.7793 15.7956 13.2355 15.7956C13.6916 15.7872 14.0418 15.9478 14.5305 16.379C14.9051 16.7087 15.1983 16.7425 15.5079 16.4889C15.6707 16.3536 15.7196 16.2437 15.7196 15.9901C15.7196 15.728 15.6626 15.6097 15.3775 15.3222C14.5712 14.5106 13.3739 14.1978 12.364 14.5444Z" fill="black"/>
<path d="M21.8606 14.5356C21.3393 14.73 20.6714 15.1696 20.4026 15.4993C20.142 15.8206 20.1339 16.1841 20.4026 16.4547C20.6714 16.7421 20.9972 16.7252 21.3882 16.4039C22.3492 15.6093 23.066 15.5839 23.9538 16.3194C24.1818 16.5138 24.4425 16.666 24.5239 16.666C24.923 16.666 25.2488 16.3109 25.2488 15.8882C25.2488 15.6177 24.5728 14.9921 23.9619 14.6962C23.2859 14.3665 22.4796 14.3073 21.8606 14.5356Z"/>
<path d="M13.5448 30.1846C13.3086 30.4129 13.2272 30.7426 13.3493 31.0047C13.4389 31.216 13.5774 31.3006 14.1394 31.4528C14.3919 31.5204 14.4978 31.6049 14.5874 31.8163C14.7014 32.0953 14.7095 32.0953 15.3367 32.1206L15.9638 32.146V31.9093C15.9557 31.5711 15.7683 31.0808 15.524 30.7426C15.2389 30.3537 14.7421 30.1001 14.1801 30.0494C13.7973 30.0156 13.6996 30.0325 13.5448 30.1846Z"/>
<path d="M21.3233 30.125C20.916 30.2349 20.3296 30.7844 20.1667 31.2156C20.0934 31.41 20.0201 31.7567 20.012 31.9849C19.9957 32.3484 20.0282 32.433 20.2237 32.6105C20.7043 33.0332 21.3396 32.7035 21.3396 32.0272C21.3396 31.6975 21.5839 31.4692 22.0156 31.3847C22.4717 31.3001 22.6346 31.1141 22.6427 30.683C22.6427 30.1166 22.1377 29.8967 21.3233 30.125Z" />
</symbol>
<symbol id="weight" viewBox="0 0 36 36" fill="131313">
<path d="M15.9495 0.61517C11.4785 1.27821 7.79691 3.76058 6.4423 7.01111C6.01016 8.03802 5.89381 8.66872 5.89381 9.90586C5.90212 10.8196 5.93536 11.1592 6.07664 11.6524C6.36751 12.6227 6.57527 13.116 7.00742 13.8113L7.40632 14.4582L6.95755 15.0081C3.40897 19.423 3.01837 25.6329 5.97691 30.5249C7.08221 32.3604 8.88559 34.1635 10.6474 35.2147L11.171 35.522L18.3346 35.4654L25.5066 35.4007L25.8473 35.2147C27.0357 34.5436 28.7144 33.0477 29.6535 31.8348C31.0663 29.9912 31.9888 27.8404 32.3794 25.5116C32.5123 24.6788 32.5123 22.2126 32.3711 21.4283C31.9472 19.0106 31.0414 16.9406 29.612 15.1051C29.3377 14.7574 29.1217 14.4663 29.1217 14.442C29.1217 14.4259 29.2712 14.1752 29.4458 13.8922C29.853 13.2453 30.2186 12.4125 30.4181 11.6848C30.6425 10.8762 30.6425 8.8547 30.4181 8.04611C29.6203 5.17562 27.2269 2.78219 23.8445 1.46419C22.8971 1.09224 21.2765 0.69603 20.2294 0.566654C19.2571 0.453453 16.8554 0.477711 15.9495 0.61517ZM21.0106 1.93317C25.4484 2.79836 28.6978 5.51522 29.2962 8.86278C29.4291 9.61477 29.346 10.8923 29.1217 11.6039C28.8973 12.2993 28.4818 13.116 27.9914 13.8113C27.792 14.0944 27.6258 14.4178 27.6258 14.5229C27.6258 14.628 27.8003 14.9029 28.0496 15.1779C30.1272 17.4823 31.2242 20.369 31.2242 23.4902C31.2159 27.0399 29.853 30.1529 27.2269 32.5949C26.7781 33.0153 26.1382 33.5409 25.7975 33.7673L25.1742 34.1878L18.3014 34.2121L11.4369 34.2444L10.905 33.9048C8.977 32.6515 7.24011 30.5815 6.27609 28.3821C5.06276 25.6006 4.9381 22.3743 5.92705 19.4796C6.45061 17.9756 7.14869 16.7465 8.21244 15.4528C8.64458 14.9353 8.84404 14.628 8.84404 14.4825C8.84404 14.3612 8.62796 13.965 8.34541 13.5526C7.34815 12.1052 6.94093 10.4961 7.18194 8.97598C7.43125 7.43966 8.12933 6.17826 9.41746 4.92495C11.0962 3.29969 13.4397 2.22426 16.1905 1.81997C17.3291 1.65017 19.8471 1.71485 21.0106 1.93317Z"/>
<path d="M16.3233 3.35635C12.916 3.91428 10.2484 5.80638 9.37576 8.28875C9.17631 8.84667 9.14307 9.06499 9.14307 9.86549C9.14307 10.666 9.17631 10.8843 9.37576 11.4422C9.50042 11.798 9.73311 12.2913 9.89101 12.5419C10.3232 13.2373 10.5143 13.2616 11.3703 12.7441C12.6501 11.9597 14.1211 11.3856 15.6502 11.0703C16.6807 10.8601 18.6586 10.7792 19.7805 10.9086C21.534 11.1107 23.4371 11.7414 24.9579 12.639C25.3901 12.8896 25.8306 13.0999 25.9386 13.0999C26.5702 13.0999 27.3763 11.2805 27.3763 9.86549C27.3763 6.72008 24.3679 4.02748 20.1046 3.35635C19.1988 3.2108 17.1959 3.2108 16.3233 3.35635ZM20.437 4.65009C21.8664 4.95736 23.1795 5.53954 24.1685 6.3077C25.4981 7.33461 26.2128 8.76581 26.0965 10.1485C26.0549 10.6983 25.8472 11.4422 25.7225 11.5231C25.6893 11.5393 25.2239 11.3452 24.692 11.0865C23.5867 10.5528 22.3318 10.1242 21.0603 9.84932C20.2874 9.68761 19.9633 9.66335 18.2348 9.67143C16.5311 9.67143 16.1737 9.69569 15.4341 9.84932C14.1543 10.1242 13.157 10.4639 11.9271 11.046C10.6888 11.6363 10.7553 11.6444 10.5309 10.9167C10.2401 9.97061 10.4229 8.7173 10.988 7.77125C11.2872 7.26992 12.1099 6.43708 12.7083 6.0247C13.8468 5.24036 14.8441 4.88458 16.9882 4.49646C17.4286 4.4156 19.8719 4.5288 20.437 4.65009Z" />
<path d="M19.0827 15.0808C18.85 15.3719 18.85 15.6468 19.091 15.8813C19.2489 16.035 19.4068 16.0754 19.9802 16.1158C21.0938 16.1967 22.1576 16.5201 23.1133 17.07C23.7947 17.4743 24.8335 18.4526 25.2989 19.1561C25.9887 20.1669 26.4624 21.6142 26.4624 22.6816C26.4624 23.0535 26.4956 23.1667 26.6702 23.3284C26.9361 23.5953 27.2851 23.5953 27.5428 23.3284C27.7256 23.1425 27.7339 23.0939 27.684 22.3015C27.4513 18.388 24.1022 15.1213 20.0966 14.9029L19.2655 14.8544L19.0827 15.0808Z" />
</symbol>
<symbol id="ice-cream" viewBox="0 0 36 36" fill="131313">
<path d="M18.1219 0.120502C18.2123 0.361507 18.393 1.52887 18.393 1.89038C18.393 2.78661 18.0616 3.62259 17.4516 4.27782C16.947 4.82008 16.4424 5.12134 15.2298 5.61088C13.8817 6.16067 13.3244 6.49205 12.6918 7.11716C12.0516 7.75732 11.675 8.45774 11.5395 9.27866C11.3888 10.1749 11.5395 10.8075 11.9989 11.169L12.2324 11.3498L11.8633 11.5833C11.1177 12.0728 9.76206 13.2251 9.52859 13.5791C9.07671 14.2569 9.1219 14.8895 9.63403 15.1456L9.87504 15.2661L9.60391 15.5222C9.19721 15.9063 9.11437 16.1699 9.17462 16.8628C9.21227 17.3222 9.19721 17.5707 9.09177 17.9473C8.96374 18.4368 8.96374 18.4444 9.12943 18.7908C9.29512 19.1297 9.76206 19.559 10.1838 19.7397C10.3872 19.8301 10.3947 19.8603 10.4399 20.5531C10.4625 20.9523 10.5001 22.2251 10.5303 23.3849C10.5529 24.5448 10.6056 25.6067 10.6508 25.7347C10.6884 25.8703 10.8315 26.051 10.9596 26.1414C11.3964 26.4427 11.6976 26.7665 11.8934 27.1431C12.1119 27.5724 12.3529 28.6268 13.0834 32.272L13.5955 34.8326L13.9119 35.1339C14.5144 35.7289 15.6667 36 17.5646 36C19.47 36 20.6073 35.7364 21.2098 35.1414L21.5336 34.8326L22.0006 32.4603C23.0324 27.2711 23.1227 26.9849 23.9286 26.3448C24.1771 26.1414 24.4181 25.8929 24.4633 25.7799C24.516 25.6519 24.5688 24.6653 24.6064 23.1741C24.6365 21.8485 24.6817 20.5381 24.7119 20.2594L24.757 19.7548L25.2466 19.3858C25.8642 18.9113 26.1052 18.482 26.1052 17.8192C26.0976 17.036 25.5855 16.1774 24.6516 15.4092L24.2073 15.0477L24.4257 14.7389C25.337 13.4812 24.7646 11.7414 23.07 10.5816L22.5579 10.2276L22.7462 10.0318C23.5821 9.13556 23.7177 6.46193 23.0173 4.60167C22.5955 3.49456 21.6315 2.28954 20.4491 1.40084C19.8692 0.964016 18.2725 0 18.1294 0C18.0993 0 18.0993 0.0527191 18.1219 0.120502ZM20.2909 2.74895C20.6901 3.14059 21.1721 3.67531 21.3604 3.94644C22.4826 5.51297 22.7688 7.47866 22.0909 8.92469C21.8198 9.51213 21.0064 10.3858 20.2533 10.9054C19.101 11.7038 16.5102 13.0444 14.7027 13.7824C11.7955 14.9649 10.1085 15.1908 9.91269 14.4151C9.83738 14.1213 10.0558 13.8879 10.9821 13.2703C11.8181 12.6979 15.5688 9.9113 15.6365 9.79833C15.6591 9.7682 15.275 9.94142 14.793 10.1824C13.1587 11.0109 12.383 10.8527 12.4206 9.70042C12.4432 8.86444 13.0457 7.91548 13.8817 7.37322C14.0926 7.23766 14.7478 6.9364 15.3503 6.6954C17.3311 5.89707 17.9336 5.49038 18.6039 4.4887C19.0031 3.89372 19.4399 2.79414 19.47
2.3272C19.4775 2.16151 19.5077 2.03347 19.5303 2.03347C19.5529 2.03347 19.8918 2.35732 20.2909 2.74895ZM22.347 11.3046C22.8968 11.6134 23.4692 12.1406 23.7177 12.5548C24.1545 13.3004 23.9286 14.046 22.9872 14.995C21.9629 16.0343 20.2156 17.0285 18.2951 17.6611C16.5252 18.241 14.8307 18.5121 12.4056 18.595L10.8993 18.6477L11.8784 18.708C13.1437 18.7908 15.5914 18.7155 16.5403 18.5649C19.0633 18.1657 21.2098 17.3674 22.7462 16.2678C23.0926 16.0192 23.4541 15.8159 23.552 15.8159C23.8006 15.8159 24.8851 16.8552 25.1035 17.292C25.224 17.5406 25.2541 17.7213 25.2315 17.9623C25.1185 18.964 23.8985 19.4987 20.9537 19.8527C17.3537 20.282 12.6466 19.8603 10.6357 18.9339C9.68675 18.4971 9.52859 18.2485 9.7696 17.5858C9.84491 17.3749 9.85997 17.1264 9.82985 16.7724C9.79219 16.3054 9.79972 16.2452 9.96541 16.072C10.342 15.6653 10.9746 15.4318 13.2943 14.8444C14.1077 14.6335 15.2148 14.3021 15.742 14.1063C17.0223 13.6393 19.4248 12.4268 20.5395 11.6812C21.5863 10.9883 21.737 10.9582 22.347 11.3046ZM12.3453 20.523C13.9269 20.9824 15.3278 21.118 17.9336 21.0653C19.8918 21.0276 21.0968 20.9071 22.8365 20.5983C23.1905 20.5381 23.4993 20.4854 23.537 20.4854C23.6198 20.4854 23.5972 23.3774 23.5068 24.1381C23.4089 24.9439 23.1905 25.569 22.957 25.7197C22.716 25.8778 21.511 26.0435 19.8993 26.1339C16.593 26.3146 13.1964 26.1339 12.142 25.7121C11.5696 25.4787 11.5093 25.1774 11.5018 22.3833C11.5018 20.523 11.5169 20.2669 11.6148 20.3046C11.675 20.3272 12.0064 20.4251 12.3453 20.523ZM14.1303 26.9247C14.6725 26.9925 15.26 27.0603 15.4407 27.0828L15.7646 27.1205L15.4784 27.4368C15.1093 27.836 14.5445 28.6343 14.3411 29.041C14.1077 29.5079 14.0324 29.5381 13.6859 29.3498L13.3922 29.1841L13.2265 28.1598C13.1361 27.6025 13.0382 27.0678 13.0156 26.9774C12.9478 26.7816 12.8801 26.7816 14.1303 26.9247ZM22.1587 26.8418C22.1587 26.8569 22.1211 27.0527 22.0834 27.2711C22.0382 27.4971 21.8499 28.7247 21.6616 30.005C21.2775 32.6787 21.0215 33.9364 20.788 34.3582C20.4642 34.923 19.6884 35.2544 18.4307 35.3598C17.9411 35.3975 16.465 35.2996 16.3821 35.2243C16.3219 35.1565 17.6173 33.5523 17.8206 33.4469C18.0089 33.3414 18.0616 33.3565 18.7018 33.6879C19.4474 34.0795 19.824 34.1397 19.824 33.8912C19.824 33.6427 19.6282 33.4017 19.1462 33.0703C18.7018 32.754 18.5437 32.5732 18.5437 32.3623C18.5437 32.3021 18.7621 31.9632 19.0257 31.6092C19.2893 31.2552 19.6734 30.6904 19.8692 30.3515L20.2382 29.7414L20.5771 29.7866C21.2625 29.8845 21.4432 29.877 21.4206 29.7264C21.4056 29.651 21.2775 29.4326 21.1344 29.2519C20.9914 29.0636 20.8784 28.8753 20.8784 28.8377C20.8784 28.6946 21.5788 27.3766 21.8047 27.0979C22.0006 26.8569 22.1587 26.7364 22.1587 26.8418ZM17.4516 27.4444C17.8282 27.6929 19.2441 28.9205 19.3344 29.0711C19.3721 29.1389 17.9185 31.4134 17.6324 31.7372C17.6022 31.7749 17.4441 31.6996 17.2859 31.5791C17.1278 31.451 16.5403 31.0444 15.9755 30.6753L14.9587 30.005L15.5688 28.9732C16.6533 27.1582 16.6307 27.1883 16.8642 27.1883C16.9847 27.1883 17.2483 27.3013 17.4516 27.4444ZM20.306 27.7155C20.0424 28.0393 19.824 28.2427 19.7336 28.2427C19.5378 28.2427 19.2215 28.0695 18.6868 27.6778L18.2424 27.354L19.1311 27.3013C19.6131 27.2787 20.0801 27.2485 20.1629 27.2335C20.7654 27.1356 20.7654 27.1431 20.306 27.7155ZM14.6123 31.3381C15.3052 31.6092 16.4801 32.2494 16.819 32.5356C17.06 32.7314 17.06 32.7464 16.9621 32.9874C16.9018 33.123 16.6985 33.4845 16.4951 33.7933C16.2993 34.0946 16.0734 34.4711 15.9905 34.6293C15.7495 35.0962 15.6742 35.1339 15.1771 34.9983C14.6424 34.8402 14.3562 34.569 14.2056 34.0795C14.0022 33.3941 13.6784 31.4586 13.716 31.1573C13.7311 31.0444 14.0474 31.1121 14.6123 31.3381Z"/>
</symbol>
</defs>
</svg>

